<svg width="128" height="68" viewBox="0 0 128 68" fill="none" xmlns="http://www.w3.org/2000/svg">
<path d="M122.686 18.0069C123.291 20.2427 122.39 22.8739 120.013 25.7744C117.645 28.6631 113.884 31.7262 108.99 34.776C99.2091 40.8721 85.0058 46.8536 68.7004 51.2599C52.395 55.6663 37.1122 57.653 25.5918 57.3133C19.8283 57.1434 15.036 56.3919 11.5355 55.089C8.02076 53.7807 5.91775 51.9611 5.31356 49.7254C4.70938 47.4896 5.60961 44.8584 7.98699 41.9579C10.3547 39.0691 14.1162 36.0061 19.0096 32.9563C28.7909 26.8602 42.9942 20.8787 59.2996 16.4723C75.605 12.066 90.8878 10.0793 102.408 10.4189C108.172 10.5889 112.964 11.3404 116.465 12.6433C119.979 13.9515 122.082 15.7711 122.686 18.0069Z" stroke="black"/>
<path d="M42.7237 56.2351L64 34.6155L85.2763 56.2351H42.7237Z" stroke="black"/>
</svg>
